<svg width="16" height="16" viewBox="0 0 16 16" fill="none" xmlns="http://www.w3.org/2000/svg">
<rect width="16" height="16" fill="#4E4C4C" fill-opacity="0.89"/>
<path d="M2 3C2 2.44772 2.44772 2 3 2H10.3236L3.89636 2.87761C3.38746 2.94709 3.01396 3.39081 3.03229 3.9041L3.28554 10.995C3.30939 11.663 3.96927 12.12 4.60298 11.9074L10.6667 9.87295L3.42993 13.319C2.76633 13.635 2 13.1512 2 12.4162V3Z" fill="black"/>
<path d="M13.9288 13.0078C13.9253 13.5601 13.4746 14.0074 12.9224 14.0069L5.18853 14L11.8245 13.1127C12.3102 13.0477 12.6793 12.641 12.6968 12.1516L12.9623 4.71858C12.9805 4.20816 12.4851 3.83833 11.9998 4.00008V4.00008L10.6665 4.33342L8.33317 5.00008L5.6665 6.00008L3.33317 6.66675L12.5947 2.6298C13.2573 2.34099 13.9947 2.82569 13.99 3.54701L13.9288 13.0078Z" fill="#E60026"/>
</svg>
